<?xml version="1.0" standalone="no"?><!DOCTYPE svg PUBLIC "-//W3C//DTD SVG 1.1//EN" "http://www.w3.org/Graphics/SVG/1.1/DTD/svg11.dtd"><svg t="1722444323255" class="icon" viewBox="0 0 1024 1024" version="1.1" xmlns="http://www.w3.org/2000/svg" p-id="13602" xmlns:xlink="http://www.w3.org/1999/xlink" width="200" height="200"><path d="M535.422909 88.166656c3.751985 0 7.55597 0.116 11.391955 0.350998 32.398873 2.026992 65.368745 5.410979 99.357612 9.398964-6.347975 26.819895-6.214976 56.957778 0.485998 90.277647 1.373995 6.885973 2.880989 13.753946 4.389983 20.603919 7.73897 35.030863 10.050961 49.604806 3.332987 63.944751a67.149738 67.149738 0 0 1-1.958993 3.852985c-1.608994-0.134999-3.618986-0.401998-6.099976-0.835997-15.143941-2.715989-29.265886-7.79097-45.615822-13.670947-20.722919-7.471971-44.241827-15.931938-73.827711-21.208917-12.663951-2.227991-25.144902-3.350987-37.122855-3.350987-52.836794-0.017-98.938614 22.079914-129.797493 62.185757-63.039754 81.91968-39.686845 204.546201-26.719896 253.49701 38.042851 143.36644 90.244647 203.089207 162.497366 285.727884 17.723931 20.270921 37.810852 43.255831 59.587767 69.690728a85.732665 85.732665 0 0 0 7.73997 8.208968c7.57097 7.066972 18.610927 14.941942 33.705868 20.30292-65.468744-1.004996-123.800516-1.506994-177.675306-1.506994-66.037742 0-126.750505 0.719997-184.997277 2.193992-37.709853-143.081441-35.96786-298.494834 5.309979-474.813146 30.439881-130.114492 75.017707-223.561127 140.318452-294.070851 51.027801-55.113785 100.514607-80.778684 155.697392-80.778684m-0.017-85.772665c-88.335655 0-159.349378 44.276827-218.618146 108.286577-87.229659 94.200632-132.227483 210.243179-160.906372 332.8047-40.84384 174.542318-50.492803 349.739634-2.345991 525.019949 9.413963 34.375866 22.866911 55.500783 64.798747 55.500783 1.171995 0 2.343991-0.017 3.550986-0.051 65.703743-1.808993 131.455487-2.54599 197.21023-2.54599 67.376737 0 134.738474 0.770997 202.066211 1.908993 1.038996 0.018 2.092992 0.034 3.132987 0.034 40.271843 0 69.740728-13.736946 90.412647-46.906817 47.994813-77.110699 99.524611-152.496404 140.97245-233.05909 50.858801-98.855614 94.265632-201.934211 91.618642-317.090761-1.575994-68.517732-43.62383-110.934567-102.742599-110.934567-20.053922 0-42.099836 4.874981-65.184745 15.27894 7.73997 0 13.133949 0.132999 17.72493 0.133 2.47899 0 4.706982-0.034 6.934973-0.150999a284.958887 284.958887 0 0 1 16.133937-0.468999c81.466682 0 112.274561 39.150847 92.003641 125.827509-36.889856 157.827383-129.999492 282.782895-244.703044 392.778466-5.863977 5.611978-19.684923 9.111964-30.958879 9.111964-6.515975 0-12.194952-1.170995-14.976942-3.784985-108.169577-131.305487-163.80436-166.150351-205.383198-322.885739-26.016898-98.135617-15.060941-207.914188 73.609713-207.897188 6.900973 0 14.306944 0.669997 22.179913 2.044992 44.628826 7.939969 74.683708 26.869895 119.294534 34.843864 8.560967 1.523994 16.718935 2.345991 24.491905 2.345991 32.548873 0 58.146773-14.540943 76.340701-53.422791 22.93491-49.001809 7.73997-92.708638-1.323994-137.822462-8.039969-40.070843-5.478979-72.269718 31.712876-97.465619 13.469947-9.145964 20.957918-27.104894 33.437869-44.091828C707.285237 19.682923 629.939539 7.75497 552.141843 2.912989a270.788942 270.788942 0 0 0-16.735934-0.518998z" fill="#53a3f2" p-id="13603"></path></svg>